<svg
    width="181"
    height="40"
    viewBox="0 0 181 40"
    fill="none"
    xmlns="http://www.w3.org/2000/svg"
  >
    <g clipPath="url(#clip0_274_3405)">
      <path
        d="M20.0001 38.4617C30.1961 38.4617 38.4617 30.1961 38.4617 20.0001C38.4617 9.80409 30.1961 1.53857 20.0001 1.53857C9.80409 1.53857 1.53857 9.80409 1.53857 20.0001C1.53857 30.1961 9.80409 38.4617 20.0001 38.4617Z"
        stroke="#8940FF"
        strokeWidth="4"
      />
      <path
        fillRule="evenodd"
        clipRule="evenodd"
        d="M12.8535 9.23071H23.3631H23.4136C26.1808 9.25948 28.4157 11.6483 28.4157 14.5905C28.4157 16.6493 27.3215 18.4369 25.7163 19.3348C28.4234 19.6192 30.5379 22.0417 30.5379 24.9883C30.5379 27.9462 28.4069 30.3762 25.6847 30.6449L25.6873 30.6699H12.8535V9.23071Z"
        fill="url(#paint0_linear_274_3405)"
      />
      <path
        d="M162.775 30.4781V9.84182H166.792V19.6506L175.465 9.81274H179.889L171.972 18.9811L180.384 30.4781H175.843L169.411 21.5716L166.792 24.3075V30.4781H162.775Z"
        fill="#7622FF"
      />
      <path
        d="M143.246 27.451L154.772 13.3346H143.566V9.81274H159.545V12.8397L148.398 26.9562H159.633V30.4781H143.246V27.451Z"
        fill="#7622FF"
      />
      <path
        d="M140.985 30.4781H137.084V21.9209C137.084 20.6984 136.871 19.8059 136.444 19.2431C136.017 18.6804 135.425 18.3991 134.669 18.3991C134.145 18.3991 133.611 18.5349 133.068 18.8066C132.544 19.0782 132.069 19.4566 131.642 19.9417C131.215 20.4074 130.904 20.9507 130.71 21.5716V30.4781H126.81V15.2265H130.332V18.0498C130.719 17.3901 131.215 16.8371 131.816 16.3908C132.418 15.9251 133.106 15.5758 133.882 15.3429C134.678 15.0907 135.512 14.9646 136.385 14.9646C137.336 14.9646 138.112 15.1392 138.714 15.4884C139.335 15.8184 139.801 16.2744 140.111 16.8564C140.441 17.4191 140.664 18.0595 140.781 18.7774C140.916 19.4954 140.985 20.2231 140.985 20.9604V30.4781Z"
        fill="black"
      />
      <path
        d="M119.391 30.4781V15.2266H123.292V30.4781H119.391ZM119.391 13.1018V9.23071H123.292V13.1018H119.391Z"
        fill="black"
      />
      <path
        d="M108.784 30.7691C107.542 30.7691 106.426 30.5654 105.436 30.1579C104.447 29.7311 103.602 29.1489 102.904 28.4115C102.225 27.6742 101.701 26.8301 101.332 25.8793C100.964 24.9285 100.779 23.9292 100.779 22.8814C100.779 21.8142 100.964 20.8051 101.332 19.8544C101.701 18.9036 102.225 18.0595 102.904 17.3221C103.602 16.5848 104.447 16.0124 105.436 15.6049C106.426 15.178 107.542 14.9646 108.784 14.9646C110.025 14.9646 111.132 15.178 112.102 15.6049C113.092 16.0124 113.935 16.5848 114.634 17.3221C115.332 18.0595 115.856 18.9036 116.205 19.8544C116.575 20.8051 116.759 21.8142 116.759 22.8814C116.759 23.9292 116.575 24.9285 116.205 25.8793C115.856 26.8301 115.332 27.6742 114.634 28.4115C113.955 29.1489 113.12 29.7311 112.131 30.1579C111.141 30.5654 110.025 30.7691 108.784 30.7691ZM104.796 22.8814C104.796 23.774 104.971 24.5695 105.32 25.2681C105.669 25.9472 106.145 26.4808 106.746 26.8689C107.348 27.257 108.027 27.4511 108.784 27.4511C109.521 27.4511 110.19 27.257 110.792 26.8689C111.393 26.4614 111.869 25.9181 112.218 25.239C112.587 24.5404 112.771 23.7449 112.771 22.8523C112.771 21.9791 112.587 21.1933 112.218 20.4947C111.869 19.7961 111.393 19.2528 110.792 18.8648C110.19 18.4767 109.521 18.2827 108.784 18.2827C108.027 18.2827 107.348 18.4864 106.746 18.8939C106.145 19.282 105.669 19.8253 105.32 20.5238C104.971 21.203 104.796 21.9888 104.796 22.8814Z"
        fill="black"
      />
      <path
        d="M92.5545 30.7691C91.313 30.7691 90.1968 30.5654 89.2076 30.1579C88.2176 29.7311 87.3737 29.1489 86.6753 28.4115C85.9768 27.6548 85.4337 26.801 85.0453 25.8502C84.6768 24.8994 84.4922 23.9001 84.4922 22.8523C84.4922 21.4164 84.8122 20.1066 85.453 18.923C86.1122 17.7199 87.0437 16.7594 88.2468 16.0415C89.4499 15.3235 90.876 14.9646 92.5253 14.9646C94.1745 14.9646 95.5914 15.3235 96.7753 16.0415C97.9583 16.7594 98.8414 17.7005 99.4237 18.8648L95.6107 20.029C95.2807 19.4663 94.8445 19.0394 94.3007 18.7484C93.7576 18.4379 93.156 18.2827 92.496 18.2827C91.7591 18.2827 91.0799 18.4767 90.4591 18.8648C89.8576 19.2334 89.3822 19.7671 89.033 20.4656C88.6837 21.1448 88.5091 21.9403 88.5091 22.8523C88.5091 23.7449 88.6837 24.5404 89.033 25.239C89.4014 25.9181 89.8868 26.4614 90.4883 26.8689C91.0899 27.257 91.7591 27.4511 92.496 27.4511C92.9622 27.4511 93.3983 27.3734 93.806 27.2182C94.233 27.063 94.6114 26.8495 94.9414 26.5779C95.2714 26.3062 95.5137 25.9958 95.6691 25.6464L99.4822 26.8108C99.133 27.5674 98.6183 28.2466 97.9391 28.8481C97.2799 29.4497 96.4937 29.9251 95.5814 30.2744C94.6891 30.6042 93.6799 30.7691 92.5545 30.7691Z"
        fill="black"
      />
      <path
        d="M83.6207 29.6925C83.2907 29.8283 82.893 29.9836 82.4277 30.1582C81.9615 30.3329 81.4569 30.4687 80.9138 30.5657C80.39 30.6821 79.8561 30.7403 79.313 30.7403C78.5953 30.7403 77.9353 30.6142 77.3338 30.362C76.7322 30.1097 76.2471 29.712 75.8784 29.1687C75.5291 28.6059 75.3545 27.8783 75.3545 26.9857V18.2247H73.3462V15.2268H75.3545V10.2788H79.2546V15.2268H82.4561V18.2247H79.2546V25.6759C79.2738 26.1998 79.42 26.5782 79.6915 26.811C79.963 27.0439 80.3023 27.1603 80.71 27.1603C81.1177 27.1603 81.5153 27.0924 81.903 26.9566C82.2915 26.8207 82.6023 26.7043 82.8346 26.6073L83.6207 29.6925Z"
        fill="black"
      />
      <path
        d="M67.0625 30.4781V15.2266H70.9627V30.4781H67.0625ZM67.0625 13.1018V9.23071H70.9627V13.1018H67.0625Z"
        fill="black"
      />
      <path
        d="M64.3068 25.1516C64.3068 26.3158 64.006 27.2957 63.4045 28.0914C62.803 28.8675 61.988 29.4593 60.9597 29.8668C59.9506 30.2743 58.8446 30.4781 57.6415 30.4781H47.6582V9.81274H58.7184C59.6887 9.81274 60.523 10.0747 61.2216 10.5986C61.9395 11.1031 62.4828 11.7628 62.8515 12.5778C63.2396 13.3734 63.4337 14.2077 63.4337 15.0809C63.4337 16.0705 63.1814 17.0117 62.6769 17.9042C62.1724 18.7968 61.4351 19.4565 60.4648 19.8834C61.6485 20.2327 62.5799 20.8634 63.259 21.7753C63.9576 22.6873 64.3068 23.8127 64.3068 25.1516ZM60.261 24.3948C60.261 23.871 60.1544 23.4053 59.9409 22.9977C59.7275 22.5709 59.4364 22.241 59.0677 22.0081C58.7184 21.7559 58.311 21.6298 57.8453 21.6298H51.6748V27.0726H57.6415C58.1267 27.0726 58.5632 26.9562 58.9513 26.7234C59.3588 26.4711 59.679 26.1412 59.9118 25.7337C60.1447 25.3263 60.261 24.88 60.261 24.3948ZM51.6748 13.2473V18.4572H57.0304C57.4766 18.4572 57.8841 18.3505 58.2527 18.1371C58.6214 17.9236 58.9125 17.6228 59.126 17.2347C59.3588 16.8467 59.4752 16.381 59.4752 15.8377C59.4752 15.3137 59.3685 14.8578 59.155 14.4697C58.961 14.0816 58.6894 13.7808 58.3401 13.5674C58.0102 13.354 57.6318 13.2473 57.205 13.2473H51.6748Z"
        fill="black"
      />
    </g>
    <defs>
      <linearGradient
        id="paint0_linear_274_3405"
        x1="12.6153"
        y1="19.9503"
        x2="31.5384"
        y2="19.0272"
        gradientUnits="userSpaceOnUse"
      >
        <stop stopColor="#8940FF" />
        <stop offset="1" stopColor="#8940FF" stopOpacity="0" />
      </linearGradient>
      <clipPath id="clip0_274_3405">
        <rect width="180.769" height="40" fill="white" />
      </clipPath>
    </defs>
  </svg>